<svg width="44" height="44" viewBox="0 0 44 44" fill="none" xmlns="http://www.w3.org/2000/svg">
<circle cx="22" cy="22" r="22" fill="#DF3737"/>
<path d="M24.2988 26H18.709V25.2207L21.6621 21.9395C22.0996 21.4434 22.4004 21.041 22.5645 20.7324C22.7324 20.4199 22.8164 20.0977 22.8164 19.7656C22.8164 19.3203 22.6816 18.9551 22.4121 18.6699C22.1426 18.3848 21.7832 18.2422 21.334 18.2422C20.7949 18.2422 20.375 18.3965 20.0742 18.7051C19.7773 19.0098 19.6289 19.4355 19.6289 19.9824H18.5449C18.5449 19.1973 18.7969 18.5625 19.3008 18.0781C19.8086 17.5938 20.4863 17.3516 21.334 17.3516C22.127 17.3516 22.7539 17.5605 23.2148 17.9785C23.6758 18.3926 23.9062 18.9453 23.9062 19.6367C23.9062 20.4766 23.3711 21.4766 22.3008 22.6367L20.0156 25.1152H24.2988V26Z" fill="white"/>
</svg>
