<svg width="44" height="44" viewBox="0 0 44 44" fill="none" xmlns="http://www.w3.org/2000/svg">
<circle cx="22" cy="22" r="22" fill="#DF3737"/>
<path d="M20.2852 21.207H21.0996C21.6113 21.1992 22.0137 21.0645 22.3066 20.8027C22.5996 20.541 22.7461 20.1875 22.7461 19.7422C22.7461 18.7422 22.248 18.2422 21.252 18.2422C20.7832 18.2422 20.4082 18.377 20.127 18.6465C19.8496 18.9121 19.7109 19.2656 19.7109 19.707H18.627C18.627 19.0312 18.873 18.4707 19.3652 18.0254C19.8613 17.5762 20.4902 17.3516 21.252 17.3516C22.0566 17.3516 22.6875 17.5645 23.1445 17.9902C23.6016 18.416 23.8301 19.0078 23.8301 19.7656C23.8301 20.1367 23.709 20.4961 23.4668 20.8438C23.2285 21.1914 22.9023 21.4512 22.4883 21.623C22.957 21.7715 23.3184 22.0176 23.5723 22.3613C23.8301 22.7051 23.959 23.125 23.959 23.6211C23.959 24.3867 23.709 24.9941 23.209 25.4434C22.709 25.8926 22.0586 26.1172 21.2578 26.1172C20.457 26.1172 19.8047 25.9004 19.3008 25.4668C18.8008 25.0332 18.5508 24.4609 18.5508 23.75H19.6406C19.6406 24.1992 19.7871 24.5586 20.0801 24.8281C20.373 25.0977 20.7656 25.2324 21.2578 25.2324C21.7812 25.2324 22.1816 25.0957 22.459 24.8223C22.7363 24.5488 22.875 24.1562 22.875 23.6445C22.875 23.1484 22.7227 22.7676 22.418 22.502C22.1133 22.2363 21.6738 22.0996 21.0996 22.0918H20.2852V21.207Z" fill="white"/>
</svg>
